#N canvas 193 2 1716 968 12;
#X obj 101 233 hradio 15 1 0 8 empty empty empty 0 -8 0 10 -262144
-1 -1 0;
#X obj 52 29 bng 15 250 50 0 empty empty empty 17 7 0 10 -262144 -1
-1;
#X floatatom 114 187 5 0 0 0 - - -, f 5;
#X obj 317 379 bng 15 250 50 0 empty empty empty 17 7 0 10 -262144
-1 -1;
#X obj 193 117 + 1;
#X obj 108 116 float, f 8;
#X floatatom 108 58 5 0 0 0 - - -, f 5;
#X obj 106 30 bng 15 250 50 0 empty empty empty 17 7 0 10 -262144 -1
-1;
#X obj 109 156 mod 8;
#X obj 1052 698 s led1 @hv_param;
#X obj 975 784 s led3 @hv_param;
#X obj 939 826 s led4 @hv_param;
#X obj 539 117 *~ 1;
#X obj 542 48 loadbang;
#X msg 538 85 -1;
#X obj 637 122 bng 15 250 50 0 empty empty empty 17 7 0 10 -262144
-1 -1;
#X obj 633 50 bng 15 250 50 0 empty empty empty 17 7 0 10 -262144 -1
-1;
#X obj 637 85 metro 2000;
#X obj 703 48 r metrospeed;
#X obj 213 399 s metrospeed;
#X obj 541 370 bng 15 250 50 0 empty empty empty 17 7 0 10 -262144
-1 -1;
#X obj 441 441 s metrospeed;
#X msg 442 387 200;
#X msg 213 372 1000;
#X obj 294 339 sel 0;
#X obj 424 332 sel 1;
#X obj 747 180 hsl 128 15 0 400 0 0 empty empty empty -2 -8 0 10 -262144
-1 -1 0 1;
#X obj 744 286 s slider1;
#X floatatom 744 219 5 0 0 0 - - -, f 5;
#X obj 101 268 s current;
#X obj 289 296 r current;
#X obj 425 283 r current;
#X obj 418 683 osc~ 440;
#X obj 418 735 *~ 0.1;
#X obj 1552 163 hsl 128 15 0 400 0 0 empty empty empty -2 -8 0 10 -262144
-1 -1 6350 1;
#X obj 1500 359 s slider1;
#X obj 1476 36 tgl 15 0 empty empty empty 17 7 0 10 -262144 -1 -1 0
1;
#X obj 1402 205 spigot;
#X floatatom 1436 292 5 0 0 0 - - -, f 5;
#X floatatom 1496 284 5 0 0 0 - - -, f 5;
#X obj 1495 119 - 1;
#X obj 1485 236 spigot -1;
#X text 1556 190 pot and shift pot;
#X obj 1465 385 s shiftslider1;
#X msg 582 593 440;
#X obj 586 647 sig~;
#X obj 647 552 r slider1;
#X obj 619 617 * 2;
#X obj 1559 57 loadbang;
#X msg 1555 108 200;
#X obj 343 380 bng 15 250 50 0 empty empty empty 17 7 0 10 -262144
-1 -1;
#X msg 315 417 1;
#X msg 357 416 0;
#X obj 320 563 r slider1;
#X obj 418 650 * 2;
#X obj 569 369 bng 15 250 50 0 empty empty empty 17 7 0 10 -262144
-1 -1;
#X msg 543 406 1;
#X msg 585 406 0;
#X obj 360 612 spigot;
#X obj 408 574 r v1;
#X obj 319 449 s v1;
#X obj 544 441 s v2;
#X obj 664 585 spigot;
#X obj 731 564 r v2;
#X obj 411 781 throw~ out;
#X obj 672 754 catch~ out;
#X text 185 438 voice selector;
#X obj 967 194 r pot1 @hv_param 0 410 200;
#X obj 967 235 s thepot1;
#X obj 966 273 r pot2 @hv_param 0 410 200;
#X obj 966 314 s thepot2;
#X obj 966 359 r pot3 @hv_param 0 410 200;
#X obj 966 400 s thepot3;
#X obj 965 435 r pot4 @hv_param 0 410 200;
#X obj 965 476 s thepot4;
#X msg 1021 635 1024;
#X obj 935 583 loadbang;
#X obj 560 932 dac~ 1 2 3 4;
#X msg 883 638 0;
#X obj 572 789 osc~ 220;
#X obj 712 833 osc~ 55;
#X obj 41 630 loadbang;
#X obj 73 734 sig~;
#X obj 172 614 loadbang;
#X obj 141 878 snapshot~;
#X obj 143 589 bng 15 250 50 0 empty empty empty 17 7 0 10 -262144
-1 -1;
#X obj 168 725 bng 15 250 50 0 empty empty empty 17 7 0 10 -262144
-1 -1;
#X obj 205 798 +~ 1;
#X floatatom 125 921 5 0 0 0 - - -, f 5;
#X obj 206 834 *~ 512;
#X obj 168 656 metro 50;
#X obj 265 669 r thepot1;
#X obj 249 698 /~ 10;
#X msg 69 680 -1;
#X obj 205 731 osc~ 0.1;
#X obj 269 168 tabread p2;
#X floatatom 270 205 5 0 0 0 - - -, f 5;
#X obj 1378 511 table p2;
#X obj 1327 479 loadbang;
#X obj 1401 631 + 1;
#X obj 1296 632 float, f 8;
#X floatatom 1237 718 5 0 0 0 - - -, f 5;
#X obj 1291 479 bng 15 250 50 0 empty empty empty 17 7 0 10 -262144
-1 -1;
#X obj 1302 722 tabread p2;
#X floatatom 1283 775 5 0 0 0 - - -, f 5;
#X msg 1327 539 \; p2 0 -1 0 1 0;
#X obj 1294 670 mod 4;
#X obj 1338 826 sig~;
#X obj 619 828 r~ dac2;
#X obj 1502 846 snapshot~;
#X obj 1566 766 +~ 1;
#X floatatom 1486 889 5 0 0 0 - - -, f 5;
#X obj 1567 802 *~ 512;
#X obj 1537 926 s led2 @hv_param;
#X obj 1509 666 loadbang;
#X obj 1480 641 bng 15 250 50 0 empty empty empty 17 7 0 10 -262144
-1 -1;
#X obj 1505 777 bng 15 250 50 0 empty empty empty 17 7 0 10 -262144
-1 -1;
#X obj 1505 708 metro 50;
#X obj 815 915 s~ dac2;
#X obj 811 866 sig~;
#X obj 807 833 1;
#X obj 1295 596 metro 3000;
#X obj 1382 759 + 1;
#X obj 1382 788 * 512;
#X floatatom 1384 820 5 0 0 0 - - -, f 5;
#X obj 1441 744 sig~;
#X connect 0 0 29 0;
#X connect 1 0 5 0;
#X connect 2 0 0 0;
#X connect 3 0 51 0;
#X connect 4 0 5 1;
#X connect 5 0 4 0;
#X connect 5 0 8 0;
#X connect 6 0 5 0;
#X connect 7 0 6 0;
#X connect 8 0 2 0;
#X connect 8 0 95 0;
#X connect 13 0 14 0;
#X connect 13 0 17 0;
#X connect 14 0 12 0;
#X connect 16 0 17 0;
#X connect 17 0 15 0;
#X connect 18 0 17 1;
#X connect 20 0 56 0;
#X connect 22 0 21 0;
#X connect 23 0 19 0;
#X connect 24 0 3 0;
#X connect 24 0 23 0;
#X connect 24 1 50 0;
#X connect 25 0 20 0;
#X connect 25 0 22 0;
#X connect 25 1 55 0;
#X connect 26 0 28 0;
#X connect 28 0 27 0;
#X connect 30 0 24 0;
#X connect 31 0 25 0;
#X connect 32 0 33 0;
#X connect 33 0 64 0;
#X connect 34 0 37 0;
#X connect 34 0 41 0;
#X connect 36 0 37 1;
#X connect 36 0 40 0;
#X connect 37 0 38 0;
#X connect 38 0 43 0;
#X connect 39 0 35 0;
#X connect 40 0 41 1;
#X connect 41 0 39 0;
#X connect 44 0 45 0;
#X connect 46 0 62 0;
#X connect 47 0 45 0;
#X connect 48 0 49 0;
#X connect 49 0 34 0;
#X connect 50 0 52 0;
#X connect 51 0 60 0;
#X connect 52 0 60 0;
#X connect 53 0 58 0;
#X connect 54 0 32 0;
#X connect 55 0 57 0;
#X connect 56 0 61 0;
#X connect 57 0 61 0;
#X connect 58 0 54 0;
#X connect 59 0 58 1;
#X connect 62 0 47 0;
#X connect 63 0 62 1;
#X connect 67 0 68 0;
#X connect 69 0 70 0;
#X connect 71 0 72 0;
#X connect 73 0 74 0;
#X connect 75 0 9 0;
#X connect 76 0 75 0;
#X connect 76 0 78 0;
#X connect 78 0 10 0;
#X connect 78 0 11 0;
#X connect 79 0 77 0;
#X connect 79 0 77 2;
#X connect 80 0 77 3;
#X connect 81 0 93 0;
#X connect 83 0 90 0;
#X connect 84 0 88 0;
#X connect 85 0 90 0;
#X connect 86 0 84 0;
#X connect 87 0 89 0;
#X connect 89 0 84 0;
#X connect 90 0 86 0;
#X connect 91 0 92 0;
#X connect 93 0 82 0;
#X connect 95 0 96 0;
#X connect 98 0 105 0;
#X connect 98 0 121 0;
#X connect 99 0 100 1;
#X connect 100 0 99 0;
#X connect 100 0 106 0;
#X connect 102 0 105 0;
#X connect 102 0 121 0;
#X connect 103 0 104 0;
#X connect 103 0 107 0;
#X connect 103 0 125 0;
#X connect 106 0 101 0;
#X connect 106 0 103 0;
#X connect 108 0 77 1;
#X connect 109 0 111 0;
#X connect 109 0 113 0;
#X connect 110 0 112 0;
#X connect 112 0 109 0;
#X connect 114 0 117 0;
#X connect 115 0 117 0;
#X connect 116 0 109 0;
#X connect 117 0 116 0;
#X connect 119 0 118 0;
#X connect 120 0 119 0;
#X connect 121 0 100 0;
#X connect 122 0 123 0;
#X connect 123 0 124 0;
#X connect 125 0 110 0;
