#N canvas 401 86 1222 660 12;
#X obj 485 129 *~ 1;
#X obj 488 60 loadbang;
#X msg 484 97 -1;
#X obj 401 280 osc~ 220;
#X obj 480 288 osc~ 110;
#X obj 297 454 dac~ 1 2 3 4;
#X obj 335 355 *~ 1;
#X obj 422 360 *~ 1;
#X obj 502 365 *~ 1;
#X obj 226 283 osc~ 330;
#X obj 31 30 r pot1 @hv_param 0 410 200;
#X obj 31 71 s thepot1;
#X obj 214 244 r thepot1;
#X obj 312 282 osc~ 440;
#X obj 249 394 *~ 1;
#X obj 30 109 r pot2 @hv_param 0 410 200;
#X obj 30 150 s thepot2;
#X obj 400 236 r thepot2;
#X obj 583 134 bng 15 250 50 0 empty empty empty 17 7 0 10 -262144
-1 -1;
#X obj 579 62 bng 15 250 50 0 empty empty empty 17 7 0 10 -262144 -1
-1;
#X obj 775 287 s metrobang @hv_param;
#X obj 583 97 metro 2000;
#X msg 656 171 1024;
#X obj 607 215 delay 100;
#X msg 624 260 0;
#X connect 1 0 2 0;
#X connect 1 0 21 0;
#X connect 2 0 0 0;
#X connect 3 0 7 0;
#X connect 4 0 8 0;
#X connect 6 0 5 1;
#X connect 7 0 5 2;
#X connect 8 0 5 3;
#X connect 9 0 14 0;
#X connect 10 0 11 0;
#X connect 12 0 9 0;
#X connect 13 0 6 0;
#X connect 14 0 5 0;
#X connect 15 0 16 0;
#X connect 17 0 3 0;
#X connect 18 0 22 0;
#X connect 18 0 23 0;
#X connect 19 0 21 0;
#X connect 21 0 18 0;
#X connect 22 0 20 0;
#X connect 23 0 24 0;
#X connect 24 0 20 0;
