#N canvas 239 81 1380 792 10;
#X obj 282 495 dac~ 1 2 3 4;
#X obj 29 19 r pot1 @hv_param 0 410 200;
#X obj 29 60 s thepot1;
#X obj 28 98 r pot2 @hv_param 0 410 200;
#X obj 28 139 s thepot2;
#X obj 28 184 r pot3 @hv_param 0 410 200;
#X obj 28 225 s thepot3;
#X obj 27 260 r pot4 @hv_param 0 410 200;
#X obj 27 301 s thepot4;
#X obj 360 108 s led1 @hv_param;
#X obj 283 194 s led3 @hv_param;
#X obj 247 236 s led4 @hv_param;
#X obj 243 17 loadbang;
#X obj 320 148 s led2 @hv_param;
#X obj 625 21 table p2;
#X obj 661 47 loadbang;
#X obj 735 199 + 1;
#X obj 630 200 float, f 8;
#X floatatom 571 286 5 0 0 0 - - -, f 5;
#X obj 625 47 bng 15 250 50 0 empty empty empty 17 7 0 10 -262144 -1
-1;
#X obj 635 272 tabread p2;
#X floatatom 573 345 5 0 0 0 - - -, f 5;
#X obj 825 429 snapshot~;
#X obj 784 350 +~ 1;
#X floatatom 1132 444 5 0 0 0 - - -, f 5;
#X obj 785 386 *~ 512;
#X obj 915 205 loadbang;
#X obj 868 200 bng 15 250 50 0 empty empty empty 17 7 0 10 -262144
-1 -1;
#X obj 864 240 metro 50;
#X obj 716 327 + 1;
#X obj 716 356 * 512;
#X floatatom 718 388 5 0 0 0 - - -, f 5;
#X obj 775 312 sig~;
#X obj 603 447 osc~ 0.1;
#X floatatom 762 277 5 0 0 0 - - -, f 5;
#X obj 914 335 random 1024;
#X floatatom 936 412 5 0 0 0 - - -, f 5;
#X obj 1123 334 loadbang;
#X obj 1157 384 metro 50;
#X msg 1089 384 1024;
#X obj 1058 334 loadbang;
#X obj 926 613 r led2;
#X floatatom 923 659 5 0 0 0 - - -, f 5;
#X obj 821 578 s led2 @hv_param;
#X msg 243 59 98;
#X floatatom 822 529 5 0 0 0 - - -, f 5;
#X obj 822 473 change;
#X obj 717 471 bng 15 250 50 0 empty empty empty 17 7 0 10 -262144
-1 -1;
#X obj 722 502 random 1024;
#X msg 661 107 \; p2 0 1 1 1 1 1;
#X obj 646 336 t f b;
#N canvas 0 22 450 278 (subpatch) 0;
#X array \$0-array2 8 float 3 black black;
#A 0 0 0.5 1 0.5 0 -0.5 -1 -0.5;
#X coords 0 1 8 -1 200 140 1;
#X restore 1043 82 graph;
#X obj 704 245 tabread \$0-array2;
#X text 1039 27 \; \$0-array2 0 0 0.5 1 0.5 0 -0.5 -1 -0.5;
#X obj 628 238 mod 8;
#X obj 629 164 metro 300;
#X connect 1 0 2 0;
#X connect 3 0 4 0;
#X connect 5 0 6 0;
#X connect 7 0 8 0;
#X connect 12 0 44 0;
#X connect 15 0 49 0;
#X connect 15 0 55 0;
#X connect 16 0 17 1;
#X connect 17 0 16 0;
#X connect 17 0 54 0;
#X connect 19 0 49 0;
#X connect 19 0 55 0;
#X connect 20 0 21 0;
#X connect 20 0 50 0;
#X connect 22 0 46 0;
#X connect 23 0 25 0;
#X connect 25 0 22 0;
#X connect 26 0 28 0;
#X connect 27 0 28 0;
#X connect 28 0 22 0;
#X connect 28 0 35 0;
#X connect 29 0 30 0;
#X connect 30 0 31 0;
#X connect 32 0 23 0;
#X connect 34 0 32 0;
#X connect 35 0 36 0;
#X connect 37 0 38 0;
#X connect 38 0 24 0;
#X connect 39 0 24 0;
#X connect 40 0 39 0;
#X connect 41 0 42 0;
#X connect 44 0 10 0;
#X connect 44 0 11 0;
#X connect 44 0 13 0;
#X connect 44 0 9 0;
#X connect 45 0 43 0;
#X connect 46 0 45 0;
#X connect 47 0 48 0;
#X connect 52 0 34 0;
#X connect 54 0 18 0;
#X connect 54 0 20 0;
#X connect 54 0 52 0;
#X connect 55 0 17 0;
